<?xml version="1.0" standalone="no"?>
<!DOCTYPE svg PUBLIC "-//W3C//DTD SVG 20010904//EN"
 "http://www.w3.org/TR/2001/REC-SVG-20010904/DTD/svg10.dtd">
<svg version="1.0" xmlns="http://www.w3.org/2000/svg"
 width="320.000000pt" height="320.000000pt" viewBox="0 0 320.000000 320.000000"
 preserveAspectRatio="xMidYMid meet">
<metadata>
Created by potrace 1.11, written by Peter Selinger 2001-2013
</metadata>
<g transform="translate(0.000000,320.000000) scale(0.100000,-0.100000)"
fill="#000000" stroke="none">
<path d="M1024 3046 c-18 -8 -35 -19 -39 -26 -4 -6 -7 -55 -7 -108 -1 -105 -8
-91 77 -157 l26 -20 4 -235 c3 -129 6 -244 9 -255 2 -11 7 -58 11 -105 4 -47
8 -87 10 -90 2 -3 6 -28 10 -57 3 -29 19 -113 34 -187 33 -162 33 -236 -3
-416 -29 -148 -36 -189 -42 -244 -3 -23 -7 -51 -9 -64 -2 -12 -7 -64 -10 -115
-4 -50 -9 -108 -11 -127 -1 -19 -4 -111 -5 -204 -2 -184 3 -171 -69 -219 -35
-23 -35 -23 -38 -108 -3 -102 7 -135 49 -153 36 -15 495 -19 619 -5 109 12
163 19 180 24 8 2 28 6 43 9 110 19 207 64 251 117 78 93 120 262 119 484 0
92 -9 212 -18 236 -2 8 -6 25 -9 39 -46 268 -167 372 -526 449 -199 43 -203
44 -220 74 -23 42 3 60 123 86 292 65 347 83 434 142 134 92 177 184 213 454
8 65 6 314 -4 355 -4 14 -9 39 -11 55 -21 119 -89 231 -172 281 -43 26 -74 36
-178 60 -5 1 -41 7 -80 14 -38 6 -81 13 -95 16 -14 3 -162 8 -330 10 -246 3
-311 1 -336 -10z m653 -170 c105 -11 197 -28 241 -44 82 -29 132 -109 157
-252 11 -63 14 -284 3 -340 -35 -200 -96 -290 -228 -339 -111 -40 -328 -83
-425 -84 -44 0 -52 4 -80 36 -45 52 -87 192 -101 337 -9 97 -9 450 0 515 10
72 34 106 97 138 82 42 170 51 336 33z m-162 -1500 c33 -4 76 -12 95 -16 19
-5 51 -11 70 -14 49 -7 168 -45 211 -67 84 -42 159 -155 174 -259 25 -191 24
-339 -5 -455 -6 -22 -13 -49 -15 -60 -16 -67 -117 -146 -205 -159 -104 -16
-222 -28 -290 -30 -124 -5 -260 41 -288 96 -23 46 -33 154 -31 331 3 275 29
449 85 565 38 78 59 85 199 68z"/>
</g>
</svg>
